<svg xmlns="http://www.w3.org/2000/svg" xmlns:xlink="http://www.w3.org/1999/xlink" width="500" zoomAndPan="magnify" viewBox="0 0 375 374.999991" height="500" preserveAspectRatio="xMidYMid meet" version="1.0"><path fill="#ffffff" d="M 346.46875 216.03125 L 28.53125 216.03125 C 13.042969 216.03125 0 202.988281 0 187.5 C 0 172.011719 13.042969 158.96875 28.53125 158.96875 L 346.46875 158.96875 C 361.957031 158.96875 375 172.011719 375 187.5 C 375 202.988281 361.957031 216.03125 346.46875 216.03125 Z M 346.46875 216.03125 " fill-opacity="1" fill-rule="nonzero"/><path fill="#ffffff" d="M 158.96875 346.46875 L 158.96875 28.53125 C 158.96875 13.042969 172.011719 0 187.5 0 C 202.988281 0 216.03125 13.042969 216.03125 28.53125 L 216.03125 346.46875 C 216.03125 361.957031 202.988281 375 187.5 375 C 172.011719 375 158.96875 361.957031 158.96875 346.46875 Z M 158.96875 346.46875 " fill-opacity="1" fill-rule="nonzero"/></svg>