<svg xmlns="http://www.w3.org/2000/svg" xmlns:xlink="http://www.w3.org/1999/xlink" width="500" zoomAndPan="magnify" viewBox="0 0 375 374.999991" height="500" preserveAspectRatio="xMidYMid meet" version="1.0"><defs><clipPath id="8fd9958aea"><path d="M 5 153.515625 L 370 153.515625 L 370 221.765625 L 5 221.765625 Z M 5 153.515625 " clip-rule="nonzero"/></clipPath><clipPath id="03bb7ec361"><path d="M 153.234375 5 L 221.484375 5 L 221.484375 370 L 153.234375 370 Z M 153.234375 5 " clip-rule="nonzero"/></clipPath></defs><g clip-path="url(#8fd9958aea)"><path fill="#040606" d="M 39.078125 221.695312 C 20.332031 221.695312 5.144531 206.414062 5.144531 187.621094 C 5.144531 168.796875 20.332031 153.546875 39.078125 153.546875 L 335.921875 153.546875 C 354.667969 153.546875 369.855469 168.796875 369.855469 187.621094 C 369.855469 206.414062 354.667969 221.695312 335.921875 221.695312 L 39.078125 221.695312 " fill-opacity="1" fill-rule="nonzero"/></g><g clip-path="url(#03bb7ec361)"><path fill="#040606" d="M 153.304688 39.078125 C 153.304688 20.332031 168.585938 5.144531 187.378906 5.144531 C 206.203125 5.144531 221.453125 20.332031 221.453125 39.078125 L 221.453125 335.921875 C 221.453125 354.667969 206.203125 369.855469 187.378906 369.855469 C 168.585938 369.855469 153.304688 354.667969 153.304688 335.921875 L 153.304688 39.078125 " fill-opacity="1" fill-rule="nonzero"/></g></svg>