<svg xmlns="http://www.w3.org/2000/svg" xmlns:xlink="http://www.w3.org/1999/xlink" width="500" zoomAndPan="magnify" viewBox="0 0 375 374.999991" height="500" preserveAspectRatio="xMidYMid meet" version="1.0"><defs><clipPath id="534d1747ca"><path d="M 0 61.40625 L 375 61.40625 L 375 313.40625 L 0 313.40625 Z M 0 61.40625 " clip-rule="nonzero"/></clipPath></defs><g clip-path="url(#534d1747ca)"><path fill="#ffffff" d="M 146.953125 257.035156 C 140.742188 256.289062 134.90625 254.566406 129.222656 252.175781 C 125.480469 250.601562 121.816406 248.808594 118.148438 247.011719 C 111.269531 243.644531 105.730469 238.484375 99.746094 233.769531 C 95.332031 230.328125 90.992188 226.8125 85.90625 224.34375 C 83.140625 222.996094 80.296875 221.949219 77.378906 220.902344 C 73.1875 219.480469 69.449219 217.3125 66.082031 214.46875 C 60.320312 209.605469 54.636719 204.742188 48.875 199.804688 C 45.882812 197.261719 42.890625 194.71875 40.046875 192.027344 C 35.707031 187.984375 30.398438 186.191406 24.859375 184.992188 C 23.363281 184.695312 21.867188 184.46875 20.371094 184.394531 C 15.285156 184.097656 11.019531 182.078125 7.207031 178.710938 C 3.390625 175.269531 0.847656 171.152344 0.398438 165.992188 C 0.324219 165.019531 0.324219 164.046875 0.398438 163.074219 C 0.472656 161.429688 0.472656 159.855469 0.621094 158.210938 C 0.773438 157.015625 0.921875 155.816406 1.371094 154.769531 C 2.71875 151.253906 4.8125 148.039062 6.90625 144.894531 C 10.347656 139.808594 15.210938 136.589844 20.449219 133.671875 C 24.5625 131.429688 28.976562 130.007812 33.539062 129.035156 C 34.210938 128.886719 34.511719 128.660156 34.734375 127.988281 C 35.707031 124.621094 37.578125 121.628906 40.046875 119.011719 C 41.769531 117.214844 43.9375 116.019531 46.257812 115.195312 C 47.902344 114.597656 49.699219 114.148438 51.492188 113.847656 C 55.832031 113.027344 60.023438 111.828125 63.539062 109.0625 C 67.953125 105.695312 72.890625 103.824219 78.277344 103.152344 C 78.351562 103.152344 78.425781 103.074219 78.5 103.152344 C 80.445312 103.449219 81.417969 102.253906 82.316406 100.757812 C 83.289062 99.261719 84.410156 97.914062 85.609375 96.566406 C 88.972656 92.675781 92.265625 88.710938 95.632812 84.820312 C 96.230469 84.148438 96.753906 83.476562 97.425781 82.953125 C 104.386719 77.191406 111.492188 71.878906 119.945312 68.4375 C 126.753906 65.671875 133.785156 65.296875 140.96875 65.519531 C 142.988281 65.59375 145.082031 65.894531 147.027344 66.644531 C 150.320312 67.839844 153.535156 69.410156 156.679688 70.90625 C 157.425781 71.28125 158.023438 71.429688 158.847656 71.132812 C 164.085938 69.261719 169.621094 68.960938 175.15625 68.664062 C 175.53125 68.664062 175.980469 68.589844 176.351562 68.738281 C 177.699219 69.335938 178.820312 68.8125 179.945312 68.140625 C 184.507812 65.445312 189.519531 64.398438 194.757812 63.875 C 202.238281 63.203125 209.71875 62.453125 217.273438 61.855469 C 222.8125 61.40625 228.347656 61.78125 233.808594 63.050781 C 237.472656 63.949219 241.289062 64.398438 245.105469 65.070312 C 245.851562 65.222656 246.601562 65.445312 247.273438 65.746094 C 250.566406 67.09375 253.855469 68.4375 257.074219 70.007812 C 259.917969 71.355469 262.609375 73 265.304688 74.574219 C 267.398438 75.84375 269.417969 77.191406 271.511719 78.464844 C 274.503906 80.257812 277.046875 82.578125 279.367188 85.121094 C 281.910156 87.964844 284.605469 90.808594 287.222656 93.574219 C 290.441406 97.015625 293.433594 100.605469 295.601562 104.796875 C 296.796875 107.039062 298.144531 109.136719 299.417969 111.304688 C 302.035156 115.867188 303.605469 120.730469 303.679688 125.96875 C 303.679688 128.136719 303.980469 130.082031 304.730469 132.027344 C 304.953125 132.550781 305.253906 133.074219 305.625 133.523438 C 307.871094 135.917969 309.816406 138.386719 309.964844 141.902344 C 309.964844 142.203125 310.414062 142.5 310.714844 142.652344 C 313.257812 143.921875 315.800781 145.195312 318.34375 146.542969 C 318.34375 146.542969 318.417969 146.542969 318.417969 146.617188 C 327.246094 153.347656 336.375 159.707031 343.707031 168.160156 C 346.621094 171.527344 349.464844 175.042969 351.785156 178.859375 C 353.132812 181.105469 354.628906 183.273438 356.199219 185.367188 C 358.292969 188.136719 360.089844 191.128906 361.210938 194.421875 C 362.632812 198.535156 363.902344 202.796875 364.953125 207.0625 C 365.773438 210.355469 365.175781 213.644531 364.054688 216.863281 C 363.230469 219.40625 361.660156 221.351562 359.117188 222.324219 C 359.640625 223.894531 360.238281 225.390625 360.613281 226.960938 C 360.910156 228.308594 361.136719 229.65625 360.988281 231.003906 C 360.6875 233.769531 360.164062 236.539062 358.441406 238.933594 C 358.292969 239.15625 358.21875 239.53125 358.292969 239.832031 C 358.519531 242.074219 358.742188 244.242188 359.042969 246.488281 C 359.117188 246.863281 359.191406 247.3125 359.414062 247.683594 C 362.484375 252.097656 365.625 256.4375 368.46875 260.925781 C 370.335938 263.84375 371.910156 266.988281 373.40625 270.128906 C 374.601562 272.671875 374.675781 275.515625 374.304688 278.28125 C 374.003906 280.304688 373.105469 282.097656 371.609375 283.445312 C 370.9375 284.042969 370.785156 284.640625 370.785156 285.464844 C 370.5625 289.207031 369.289062 292.496094 366.597656 295.191406 C 360.988281 300.875 354.179688 304.691406 346.773438 307.382812 C 339.066406 310.152344 331.0625 312.097656 322.90625 312.621094 C 312.433594 313.371094 301.886719 313.59375 291.710938 310.003906 C 290.140625 309.480469 288.570312 308.730469 287.074219 307.984375 C 285.578125 307.234375 284.53125 305.964844 283.929688 304.390625 C 283.78125 304.09375 283.40625 303.71875 283.109375 303.71875 C 277.496094 302.820312 272.558594 300.128906 267.773438 297.136719 C 264.40625 295.039062 261.1875 292.570312 257.898438 290.328125 C 256.027344 289.054688 254.15625 287.785156 252.285156 286.511719 C 251.386719 285.914062 250.414062 285.390625 249.59375 284.714844 C 248.023438 283.519531 246.449219 282.324219 244.429688 281.722656 C 243.234375 281.425781 242.261719 280.226562 241.289062 279.332031 C 240.691406 278.804688 239.417969 278.507812 238.746094 278.957031 C 236.050781 281.050781 232.910156 281.875 229.542969 281.949219 C 224.90625 282.023438 220.34375 281.199219 215.851562 280.226562 C 213.832031 279.777344 211.738281 279.703125 209.644531 279.480469 C 205.976562 279.179688 202.3125 278.808594 198.648438 278.65625 C 195.054688 278.507812 191.6875 277.460938 188.398438 276.1875 C 186.226562 275.367188 183.910156 275.289062 181.589844 275.589844 C 175.980469 276.339844 170.59375 275.441406 165.355469 273.421875 C 160.417969 271.550781 155.78125 269.15625 151.964844 265.414062 C 149.871094 263.320312 147.925781 261.226562 147.175781 258.234375 C 147.101562 257.933594 147.027344 257.410156 146.953125 257.035156 Z M 350.8125 294.367188 C 350.8125 294.515625 350.8125 294.667969 350.8125 294.816406 C 350.289062 294.816406 349.839844 294.890625 349.316406 294.890625 C 342.808594 294.816406 336.375 294.816406 329.941406 295.863281 C 321.113281 297.285156 313.257812 300.875 305.925781 305.886719 C 305.625 306.113281 305.402344 306.335938 305.101562 306.5625 C 305.175781 306.710938 305.175781 306.785156 305.253906 306.9375 C 310.414062 306.785156 315.578125 306.859375 320.664062 306.335938 C 325.003906 305.886719 329.339844 304.839844 333.605469 303.867188 C 339.964844 302.445312 346.25 300.726562 352.082031 297.734375 C 355.523438 296.011719 358.742188 293.917969 361.660156 291.300781 C 363.15625 289.878906 363.828125 288.15625 363.980469 286.214844 C 361.359375 285.6875 358.890625 285.164062 356.347656 284.640625 C 351.785156 283.667969 347.070312 282.996094 342.433594 283.21875 C 337.871094 283.371094 333.304688 283.820312 328.742188 284.34375 C 324.179688 284.867188 319.691406 285.839844 315.203125 286.4375 C 310.414062 287.109375 305.550781 287.261719 300.765625 286.363281 C 299.492188 286.136719 298.59375 285.539062 297.847656 284.492188 C 296.875 283.21875 296.648438 281.875 297.023438 280.226562 C 292.460938 280.078125 288.046875 279.777344 283.632812 279.855469 C 277.421875 279.929688 271.214844 280.078125 265.078125 279.40625 C 262.386719 279.105469 259.765625 278.507812 257.671875 276.710938 C 253.410156 273.046875 251.386719 269.828125 253.855469 263.695312 C 256.699219 256.664062 261.1875 250.753906 267.097656 246.113281 C 273.082031 241.402344 279.144531 236.835938 285.875 233.171875 C 294.105469 228.757812 302.707031 225.691406 312.136719 225.09375 C 325.898438 224.195312 337.644531 229.132812 348.269531 237.4375 C 349.988281 238.78125 351.859375 240.054688 353.730469 241.402344 C 353.132812 239.832031 352.609375 238.410156 352.082031 237.0625 C 351.785156 236.3125 351.558594 235.417969 351.035156 234.816406 C 347.96875 231.527344 345.277344 227.636719 340.488281 226.4375 C 339.738281 226.289062 339.066406 225.839844 338.394531 225.542969 C 331.210938 222.175781 324.03125 218.808594 316.847656 215.441406 C 313.855469 214.09375 310.9375 212.523438 307.644531 212.148438 C 305.925781 211.925781 304.203125 211.851562 302.484375 211.703125 C 298.96875 211.402344 295.453125 211.328125 291.9375 212.074219 C 283.035156 214.019531 274.132812 216.039062 265.304688 218.058594 C 259.992188 219.332031 255.128906 221.425781 251.238281 225.390625 C 248.917969 227.785156 246.300781 229.878906 243.832031 232.125 C 242.636719 233.171875 241.511719 234.292969 240.390625 235.417969 C 239.195312 236.613281 238.148438 237.886719 236.949219 239.007812 C 235.902344 240.054688 234.480469 239.753906 233.957031 238.410156 C 233.660156 237.734375 233.507812 236.835938 233.582031 236.089844 C 233.734375 233.769531 234.257812 231.601562 235.527344 229.65625 C 238.820312 224.644531 242.636719 220.15625 247.199219 216.265625 C 248.023438 215.589844 248.769531 214.769531 249.445312 213.945312 C 252.210938 210.578125 255.429688 207.660156 259.09375 205.191406 C 267.921875 199.359375 277.796875 197.113281 288.121094 196.515625 C 292.910156 196.214844 297.695312 196.515625 302.484375 196.515625 C 302.933594 196.515625 303.382812 196.515625 303.757812 196.589844 C 307.871094 197.1875 312.058594 197.785156 316.175781 198.460938 C 323.132812 199.582031 330.015625 200.855469 336.375 204.070312 C 339.515625 205.640625 342.65625 207.289062 345.726562 209.007812 C 349.089844 210.878906 352.085938 213.199219 354.554688 216.191406 C 354.703125 216.339844 354.851562 216.414062 355.152344 216.640625 C 355.078125 216.191406 355.078125 215.890625 355 215.667969 C 354.328125 213.722656 353.730469 211.703125 352.90625 209.757812 C 352.007812 207.660156 350.960938 205.640625 349.988281 203.621094 C 349.464844 202.648438 349.089844 201.527344 348.34375 200.703125 C 345.726562 197.785156 343.179688 194.71875 340.339844 192.101562 C 337.347656 189.40625 334.277344 186.789062 330.539062 185.144531 C 325.601562 182.972656 320.664062 180.878906 315.425781 179.308594 C 312.808594 178.558594 310.191406 178.035156 307.496094 177.960938 C 303.53125 177.8125 299.566406 178.109375 295.675781 179.007812 C 288.269531 180.730469 280.714844 182.152344 273.382812 184.019531 C 269.195312 185.070312 265.152344 187.015625 260.964844 188.136719 C 254.53125 190.007812 248.769531 193.222656 243.007812 196.515625 C 242.113281 197.039062 241.4375 197.710938 240.617188 198.386719 C 238.894531 199.804688 237.25 201.378906 235.453125 202.648438 C 229.09375 206.988281 222.660156 211.253906 216.300781 215.589844 C 213.460938 217.535156 210.691406 219.632812 208.597656 222.398438 C 206.351562 225.464844 204.183594 228.535156 201.9375 231.527344 C 198.125 236.464844 194.457031 241.476562 189.59375 245.367188 C 189.445312 245.515625 189.296875 245.664062 189.144531 245.816406 C 187.277344 248.285156 185.332031 250.679688 183.460938 253.148438 C 182.1875 254.71875 180.992188 256.363281 179.71875 257.933594 C 177.25 260.925781 174.035156 262.648438 170.292969 263.46875 C 166.179688 264.292969 162.8125 263.246094 160.417969 259.582031 C 160.34375 259.429688 160.269531 259.28125 160.195312 259.207031 C 159.820312 259.054688 159.445312 258.683594 159.148438 258.757812 C 156.753906 259.207031 154.882812 258.308594 153.386719 256.511719 C 151.816406 254.71875 151.214844 252.621094 151.292969 250.304688 C 151.292969 249.480469 150.992188 248.882812 150.394531 248.359375 C 148.074219 246.1875 146.054688 243.796875 145.832031 240.503906 C 145.679688 237.960938 145.679688 235.339844 145.753906 232.722656 C 145.832031 231.152344 146.203125 229.65625 146.203125 228.085938 C 146.277344 224.417969 147.25 220.976562 148.597656 217.613281 C 150.542969 212.898438 152.414062 208.183594 154.507812 203.546875 C 155.628906 201.078125 156.828125 198.609375 158.175781 196.214844 C 163.113281 187.386719 169.546875 179.683594 176.578125 172.425781 C 189.296875 159.257812 203.882812 149.007812 221.015625 142.425781 C 221.914062 142.050781 222.886719 141.753906 223.707031 141.304688 C 229.246094 138.238281 235.230469 136.21875 241.363281 134.796875 C 252.0625 132.328125 262.835938 131.054688 273.832031 132.253906 C 282.585938 133.226562 291.1875 134.570312 299.34375 138.164062 C 300.164062 138.535156 301.0625 138.761719 301.960938 139.058594 C 301.960938 138.835938 302.035156 138.761719 301.960938 138.761719 C 301.8125 138.460938 301.585938 138.238281 301.4375 137.9375 C 299.265625 134.421875 296.351562 131.578125 293.433594 128.8125 C 292.308594 127.761719 291.261719 126.640625 289.917969 125.96875 C 284.53125 122.902344 278.621094 121.480469 272.484375 120.957031 C 265.675781 120.355469 258.792969 120.582031 251.988281 120.957031 C 241.8125 121.554688 232.3125 124.246094 223.335938 129.035156 C 220.417969 130.605469 217.648438 132.328125 214.65625 133.671875 C 210.992188 135.394531 207.550781 137.414062 204.109375 139.507812 C 195.953125 144.597656 188.171875 150.28125 180.84375 156.566406 C 175.15625 161.429688 169.695312 166.589844 164.382812 171.828125 C 161.839844 174.296875 159.519531 177.136719 157.726562 180.28125 C 156.601562 182.152344 155.332031 183.945312 154.058594 185.816406 C 147.101562 196.140625 141.867188 207.289062 139.320312 219.554688 C 139.246094 219.78125 139.023438 220.003906 138.796875 220.304688 C 138.574219 220.078125 138.273438 219.855469 138.273438 219.632812 C 138.199219 218.507812 138.050781 217.3125 138.199219 216.191406 C 138.648438 212.898438 139.246094 209.605469 139.84375 206.316406 C 141.492188 197.113281 144.78125 188.585938 150.542969 181.105469 C 152.339844 178.710938 154.359375 176.464844 156.152344 174.144531 C 156.828125 173.25 157.574219 172.277344 157.949219 171.230469 C 159.296875 167.414062 161.390625 164.121094 164.007812 161.054688 C 166.027344 158.734375 167.972656 156.417969 170.070312 154.171875 C 176.429688 147.511719 182.785156 140.78125 190.417969 135.46875 C 197.898438 130.308594 205.304688 125.144531 212.785156 119.984375 C 214.65625 118.710938 216.675781 117.515625 218.621094 116.316406 C 222.363281 114 226.101562 111.679688 229.769531 109.285156 C 230.292969 108.984375 230.742188 108.460938 231.191406 108.089844 C 231.113281 108.011719 231.113281 107.863281 231.039062 107.789062 C 228.796875 108.164062 226.476562 108.460938 224.230469 109.0625 C 216.152344 111.082031 208.445312 114.148438 200.890625 117.589844 C 194.15625 120.65625 187.5 123.875 181.664062 128.511719 C 178 131.429688 174.484375 134.421875 171.042969 137.488281 C 166.703125 141.378906 162.886719 145.71875 160.417969 151.105469 C 159.746094 152.527344 158.699219 153.871094 157.574219 154.996094 C 155.480469 157.3125 153.085938 159.484375 150.992188 161.878906 C 149.871094 163.148438 148.824219 164.570312 148 166.066406 C 146.277344 169.433594 144.335938 172.648438 141.417969 175.195312 C 139.023438 177.289062 137.527344 179.832031 136.628906 182.898438 C 135.28125 187.460938 132.664062 191.351562 130.121094 195.242188 C 129.894531 195.617188 129.523438 195.992188 129.222656 196.289062 C 127.949219 197.5625 126.378906 198.160156 124.585938 197.5625 C 123.835938 197.335938 123.3125 197.5625 122.863281 198.085938 C 122.191406 198.984375 121.515625 199.882812 120.695312 200.628906 C 117.851562 203.621094 116.28125 207.136719 115.457031 211.101562 C 114.859375 213.796875 114.484375 216.5625 113.0625 219.03125 C 112.539062 219.929688 112.089844 220.605469 111.042969 220.753906 C 109.398438 220.976562 107.75 220.753906 106.703125 219.480469 C 105.804688 218.433594 105.207031 217.164062 104.683594 215.890625 C 104.234375 214.917969 104.160156 213.871094 103.785156 212.898438 C 103.1875 211.027344 102.289062 209.15625 102.066406 207.289062 C 100.945312 196.738281 100.867188 186.265625 102.964844 175.792969 C 104.460938 168.386719 106.332031 161.128906 110.371094 154.621094 C 110.894531 153.722656 111.34375 152.75 111.792969 151.851562 C 115.082031 144.671875 118.226562 137.339844 121.589844 130.230469 C 123.984375 125.21875 126.453125 120.132812 129.820312 115.71875 C 134.160156 110.109375 138.871094 104.796875 144.035156 99.859375 C 147.625 96.417969 151.066406 92.828125 153.835938 88.636719 C 154.285156 88.039062 154.734375 87.441406 155.257812 86.84375 C 159.820312 82.277344 164.160156 77.414062 169.84375 74.050781 C 170.070312 73.898438 170.21875 73.75 170.367188 73.527344 C 170.292969 73.449219 170.292969 73.375 170.21875 73.226562 C 167.824219 73.449219 165.355469 73.75 162.960938 73.972656 C 158.773438 74.421875 154.65625 75.320312 150.917969 77.566406 C 148.375 79.0625 145.679688 80.484375 143.136719 82.054688 C 140.21875 83.847656 137.375 85.871094 135.132812 88.414062 C 132.363281 91.480469 129.671875 94.695312 127.128906 97.914062 C 125.929688 99.410156 124.957031 101.128906 124.136719 102.925781 C 122.039062 107.640625 120.246094 112.503906 118.148438 117.289062 C 117.027344 119.757812 115.605469 122.078125 114.335938 124.546875 C 112.613281 127.914062 110.820312 131.28125 109.171875 134.722656 C 108.722656 135.617188 108.648438 136.664062 108.5 137.636719 C 108.273438 139.359375 108.199219 141.15625 107.976562 142.875 C 107.527344 145.792969 106.03125 148.261719 104.460938 150.730469 C 101.617188 155.367188 99.523438 160.304688 99.597656 165.917969 C 99.597656 166.664062 99.449219 167.339844 99.449219 168.085938 C 99.296875 171.304688 98.847656 174.519531 97.726562 177.585938 C 96.828125 180.132812 95.109375 181.777344 92.789062 182.898438 C 90.992188 183.722656 89.648438 183.273438 88.601562 181.628906 C 88.449219 181.328125 88.226562 181.027344 87.925781 180.503906 C 87.851562 181.105469 87.777344 181.476562 87.777344 181.851562 C 87.105469 186.191406 86.730469 190.53125 85.757812 194.71875 C 84.636719 199.582031 83.0625 204.371094 81.71875 209.15625 C 81.492188 209.980469 80.96875 210.503906 80.070312 210.503906 C 79.398438 210.578125 78.648438 210.578125 78.050781 210.355469 C 74.460938 209.007812 71.242188 207.136719 69.074219 203.769531 C 66.980469 200.554688 65.632812 196.964844 64.734375 193.222656 C 64.660156 192.847656 64.511719 192.476562 64.4375 192.25 C 63.238281 192.550781 62.265625 192.921875 61.292969 193 C 58.453125 193.148438 55.832031 192.324219 53.738281 190.378906 C 48.875 185.816406 44.535156 180.878906 41.992188 174.59375 C 39.523438 168.535156 37.28125 162.402344 35.109375 156.191406 C 32.34375 148.484375 31.820312 140.855469 33.238281 132.925781 C 33.316406 132.402344 33.390625 131.804688 33.539062 131.128906 C 32.867188 131.429688 32.265625 131.578125 31.820312 131.878906 C 28.902344 133.75 25.984375 135.542969 23.140625 137.488281 C 18.203125 140.929688 14.089844 145.195312 10.945312 150.28125 C 9.523438 152.601562 7.953125 154.769531 6.308594 156.941406 C 4.960938 158.734375 3.914062 160.605469 3.390625 162.773438 C 3.164062 163.671875 3.242188 164.71875 3.464844 165.617188 C 4.136719 167.789062 5.484375 169.507812 7.355469 170.703125 C 10.722656 172.875 14.164062 174.894531 17.605469 176.914062 C 17.679688 176.988281 17.753906 176.914062 17.902344 176.914062 C 14.984375 169.507812 11.992188 162.175781 14.539062 154.023438 C 14.761719 154.320312 14.835938 154.621094 14.835938 154.996094 C 14.835938 159.632812 16.035156 163.972656 18.503906 167.9375 C 19.699219 169.882812 20.894531 171.828125 21.945312 173.847656 C 23.515625 176.914062 25.910156 179.007812 28.976562 180.65625 C 30.996094 181.703125 32.640625 181.027344 34.660156 180.804688 C 34.4375 180.28125 34.363281 179.980469 34.210938 179.683594 C 31.820312 174.519531 29.722656 169.207031 28.300781 163.671875 C 26.507812 156.492188 25.609375 149.308594 26.65625 141.902344 C 26.730469 141.527344 26.804688 141.230469 26.882812 140.855469 C 26.957031 140.855469 27.105469 140.855469 27.179688 140.855469 C 27.253906 141.453125 27.40625 142.050781 27.480469 142.652344 C 27.703125 144.296875 27.777344 146.015625 28.078125 147.664062 C 29.351562 154.246094 31.445312 160.53125 34.511719 166.515625 C 37.878906 173.023438 41.320312 179.457031 44.835938 185.890625 C 45.433594 186.9375 46.109375 187.984375 47.003906 188.808594 C 50.597656 192.550781 54.410156 195.992188 57.777344 199.882812 C 61.21875 203.847656 65.035156 207.289062 69 210.578125 C 71.394531 212.597656 74.160156 214.171875 77.230469 215.066406 C 79.175781 215.667969 81.195312 216.265625 83.140625 216.714844 C 85.53125 217.3125 87.777344 218.359375 89.722656 219.855469 C 90.46875 220.453125 91.292969 221.050781 92.117188 221.652344 C 92.117188 221.425781 92.117188 221.277344 92.117188 221.128906 C 90.621094 216.039062 90.320312 210.804688 90.46875 205.492188 C 90.546875 203.246094 90.84375 201.078125 91.964844 199.132812 C 92.191406 198.757812 92.488281 198.535156 92.714844 198.160156 C 92.789062 198.234375 92.9375 198.308594 93.015625 198.308594 C 92.9375 198.683594 92.863281 198.984375 92.863281 199.359375 C 92.714844 200.777344 92.414062 202.199219 92.566406 203.621094 C 93.015625 208.933594 94.285156 214.09375 96.457031 219.03125 C 98.550781 223.894531 101.617188 228.011719 105.957031 231.152344 C 107.527344 232.273438 109.171875 233.394531 110.519531 234.816406 C 113.738281 238.183594 117.625 240.277344 121.742188 242.074219 C 122.039062 242.222656 122.339844 242.300781 122.863281 242.523438 C 122.339844 241.550781 121.890625 240.800781 121.515625 240.054688 C 119.570312 236.3125 118.75 232.347656 119.722656 228.160156 C 120.394531 225.242188 121.066406 222.25 121.367188 219.257812 C 121.890625 214.617188 123.460938 210.429688 126.453125 206.839844 C 126.679688 206.613281 126.902344 206.390625 127.128906 206.164062 C 127.277344 206.238281 127.351562 206.316406 127.5 206.390625 C 127.203125 207.210938 126.976562 208.035156 126.605469 208.859375 C 125.480469 211.253906 124.808594 213.796875 124.734375 216.488281 C 124.660156 220.902344 124.507812 225.316406 124.507812 229.804688 C 124.507812 231.226562 124.882812 232.722656 125.40625 234.070312 C 127.351562 238.933594 130.71875 242.898438 134.460938 246.414062 C 135.28125 247.160156 136.402344 247.683594 137.453125 247.984375 C 140.292969 248.808594 143.210938 249.480469 146.128906 250.152344 C 148.148438 250.601562 148.824219 251.425781 149.195312 253.445312 C 149.273438 253.894531 149.421875 254.269531 149.644531 254.644531 C 150.691406 256.585938 152.039062 258.308594 153.835938 259.65625 C 155.40625 260.777344 156.902344 261.972656 158.546875 262.871094 C 162.214844 264.890625 165.878906 267.210938 169.769531 268.632812 C 175.378906 270.652344 181.367188 271.625 187.425781 271.324219 C 187.949219 271.324219 188.472656 271.324219 189.144531 271.324219 C 188.921875 270.800781 188.695312 270.429688 188.621094 270.054688 C 187.949219 267.882812 187.351562 265.714844 186.75 263.546875 C 186.675781 263.097656 186.976562 262.574219 187.125 262.125 C 187.425781 262.421875 187.875 262.722656 188.097656 263.097656 C 188.996094 264.441406 189.894531 265.789062 190.792969 267.136719 C 192.4375 269.457031 194.757812 270.875 197.597656 271.398438 C 199.097656 271.699219 200.59375 272.074219 202.164062 272.371094 C 203.507812 272.597656 204.855469 272.820312 206.277344 273.046875 C 205.976562 272.074219 205.753906 271.25 205.53125 270.429688 C 204.929688 267.433594 204.480469 264.441406 203.808594 261.523438 C 202.761719 256.738281 202.535156 251.949219 203.734375 247.160156 C 207.175781 233.320312 214.957031 222.472656 226.699219 214.542969 C 226.925781 214.394531 227.074219 214.320312 227.300781 214.246094 C 227.148438 214.617188 226.925781 214.917969 226.699219 215.21875 C 221.6875 220.902344 217.347656 227.039062 214.207031 233.921875 C 210.09375 243.046875 207.472656 252.472656 207.699219 262.574219 C 207.773438 265.191406 208.296875 267.585938 209.867188 269.679688 C 211.515625 271.847656 213.234375 273.792969 215.851562 274.917969 C 218.621094 276.113281 221.464844 276.710938 224.230469 277.757812 C 226.402344 278.582031 228.496094 278.359375 230.589844 277.683594 C 231.863281 277.234375 233.058594 276.414062 234.332031 275.664062 C 232.460938 272.898438 231.265625 270.128906 230.589844 267.210938 C 228.722656 258.90625 230.664062 251.351562 234.855469 244.242188 C 235.453125 243.195312 236.128906 242.222656 236.875 241.328125 C 237.101562 241.027344 237.472656 240.878906 237.847656 240.652344 C 235.828125 245.292969 234.332031 252.175781 234.554688 257.113281 C 234.78125 263.394531 237.625 270.953125 239.867188 272.671875 C 239.941406 272.296875 239.941406 271.925781 240.015625 271.625 C 241.066406 264.21875 243.535156 257.410156 248.097656 251.351562 C 253.933594 243.570312 260.738281 236.761719 268.144531 230.554688 C 270.167969 228.832031 272.484375 227.335938 274.878906 226.066406 C 279.21875 223.894531 283.632812 221.800781 288.121094 220.003906 C 292.085938 218.359375 296.199219 216.9375 300.613281 216.5625 C 302.109375 216.488281 303.53125 216.5625 305.027344 216.5625 C 305.027344 216.714844 305.027344 216.863281 305.027344 217.011719 C 304.730469 217.085938 304.429688 217.238281 304.128906 217.3125 C 299.191406 218.058594 294.628906 220.003906 290.214844 222.175781 C 281.6875 226.363281 273.160156 230.554688 265.976562 236.914062 C 262.683594 239.832031 259.394531 242.671875 256.175781 245.738281 C 252.4375 249.332031 249.367188 253.519531 247.648438 258.457031 C 245.777344 263.769531 245.925781 269.230469 246.375 274.691406 C 246.375 274.992188 246.601562 275.367188 246.824219 275.664062 C 247.722656 276.863281 248.621094 278.058594 249.519531 279.253906 C 249.667969 279.480469 249.890625 279.554688 250.117188 279.703125 C 252.734375 281.199219 255.351562 282.695312 258.046875 284.117188 C 266.199219 288.457031 274.503906 292.648438 282.660156 297.058594 C 284.230469 297.957031 285.351562 298.109375 287.074219 297.210938 C 289.765625 295.789062 292.757812 294.964844 295.601562 293.84375 C 306.972656 289.355469 318.941406 288.15625 330.988281 287.933594 C 331.285156 287.933594 331.511719 288.007812 331.808594 288.082031 C 331.808594 288.15625 331.808594 288.308594 331.808594 288.382812 C 324.402344 289.730469 316.921875 290.253906 309.816406 292.945312 C 302.785156 295.640625 296.125 299.003906 289.242188 302.148438 C 289.46875 302.445312 289.542969 302.523438 289.617188 302.597656 C 292.011719 303.417969 294.328125 304.242188 296.722656 305.066406 C 296.949219 305.140625 297.246094 304.914062 297.472656 304.765625 C 299.265625 303.496094 300.914062 302.074219 302.785156 300.875 C 308.019531 297.660156 313.707031 295.640625 319.617188 294.367188 C 328.816406 292.347656 338.09375 291.972656 347.445312 293.394531 C 348.71875 293.917969 349.765625 294.144531 350.8125 294.367188 Z M 158.472656 249.257812 C 158.621094 249.257812 158.773438 249.257812 158.921875 249.179688 C 159.070312 249.554688 159.222656 249.929688 159.371094 250.304688 C 159.746094 251.277344 160.042969 252.25 160.417969 253.222656 C 161.539062 255.914062 163.859375 257.261719 166.476562 257.261719 C 169.917969 257.261719 173.359375 256.585938 176.128906 254.34375 C 177.925781 252.921875 179.644531 251.351562 181.289062 249.78125 C 181.664062 249.40625 181.964844 248.734375 181.964844 248.210938 C 181.964844 245.664062 182.414062 243.195312 183.535156 240.953125 C 185.628906 236.835938 187.648438 232.722656 189.96875 228.757812 C 195.878906 218.808594 203.507812 210.128906 211.289062 201.601562 C 212.410156 200.328125 213.683594 199.207031 214.878906 198.085938 C 204.929688 210.730469 195.355469 223.597656 189.96875 239.082031 C 190.492188 238.410156 190.941406 237.734375 191.390625 237.0625 C 194.082031 232.648438 197.375 228.832031 201.488281 225.765625 C 202.011719 225.390625 202.535156 224.867188 203.0625 224.417969 C 207.027344 220.828125 211.066406 217.238281 214.957031 213.570312 C 216.300781 212.300781 217.722656 211.027344 218.621094 209.457031 C 221.539062 204.371094 225.054688 199.804688 229.542969 195.992188 C 236.800781 189.855469 244.730469 184.621094 253.035156 179.980469 C 259.765625 176.242188 266.875 173.621094 274.28125 171.527344 C 280.339844 169.882812 286.398438 168.3125 292.535156 166.964844 C 299.566406 165.46875 306.671875 166.367188 313.707031 167.261719 C 322.757812 168.386719 330.835938 172.050781 338.617188 176.613281 C 338.84375 176.765625 338.992188 176.914062 339.214844 177.0625 C 337.421875 176.539062 335.773438 175.941406 334.128906 175.195312 C 322.234375 170.179688 309.742188 168.535156 296.949219 170.03125 C 292.085938 170.554688 287.371094 172.050781 282.585938 173.171875 C 268.371094 176.691406 255.203125 182.449219 243.683594 191.652344 C 243.308594 191.953125 243.007812 192.175781 242.636719 192.476562 C 243.234375 192.476562 243.683594 192.324219 244.132812 192.101562 C 247.199219 190.605469 250.191406 189.035156 253.257812 187.6875 C 259.320312 185.070312 265.378906 182.601562 271.4375 179.980469 C 280.640625 176.089844 290.214844 174.222656 300.164062 174.445312 C 303.832031 174.519531 307.570312 174.667969 311.164062 175.269531 C 319.09375 176.691406 326.5 179.757812 333.605469 183.421875 C 339.738281 186.566406 345.050781 190.980469 349.691406 196.140625 C 351.484375 198.160156 352.980469 200.253906 354.105469 202.722656 C 355.523438 205.714844 357.171875 208.632812 358.742188 211.625 C 358.667969 210.578125 358.742188 209.53125 358.519531 208.558594 C 357.84375 205.191406 357.246094 201.828125 356.273438 198.535156 C 355.449219 195.617188 354.179688 192.847656 352.457031 190.378906 C 350.363281 187.3125 348.34375 184.246094 346.25 181.179688 C 344.601562 178.710938 342.957031 176.242188 341.160156 173.921875 C 340.265625 172.800781 339.140625 171.828125 337.945312 170.929688 C 333.53125 167.789062 328.519531 166.066406 323.429688 164.347656 C 313.78125 161.054688 303.90625 160.007812 293.804688 160.382812 C 283.558594 160.828125 273.605469 162.925781 263.957031 166.441406 C 255.953125 169.359375 248.472656 173.023438 241.960938 178.636719 C 240.839844 179.609375 239.566406 180.503906 238.371094 181.476562 C 238.070312 181.703125 237.773438 181.851562 237.472656 182 C 237.398438 181.628906 237.546875 181.328125 237.699219 181.179688 C 240.765625 178.410156 243.683594 175.566406 246.898438 173.023438 C 253.707031 167.636719 261.339844 163.824219 269.492188 161.054688 C 281.460938 157.089844 293.804688 155.519531 306.449219 156.339844 C 313.480469 156.789062 320.289062 157.988281 326.871094 160.457031 C 327.769531 160.753906 328.667969 161.128906 329.566406 161.429688 C 329.265625 160.90625 328.96875 160.53125 328.519531 160.230469 C 325.527344 157.835938 322.683594 155.292969 319.617188 153.050781 C 317.296875 151.328125 314.753906 149.832031 312.136719 148.636719 C 308.46875 146.988281 304.730469 145.71875 300.914062 144.445312 C 293.65625 142.050781 286.476562 139.660156 278.769531 138.761719 C 269.640625 137.714844 260.515625 136.816406 251.3125 137.714844 C 244.730469 138.3125 238.148438 138.835938 231.789062 140.632812 C 224.15625 142.726562 216.976562 145.867188 210.542969 150.582031 C 208.671875 151.925781 206.800781 153.273438 204.855469 154.546875 C 194.308594 161.503906 184.808594 169.65625 176.351562 179.082031 C 168.574219 187.835938 161.988281 197.1875 158.023438 208.261719 C 157.5 209.757812 156.828125 211.175781 156.304688 212.675781 C 153.910156 219.480469 151.441406 226.214844 149.121094 233.023438 C 148 236.3125 149.195312 239.304688 150.691406 242.222656 C 150.769531 242.375 150.917969 242.449219 151.140625 242.746094 C 151.441406 241.175781 151.742188 239.679688 152.039062 238.257812 C 152.1875 238.257812 152.339844 238.257812 152.5625 238.257812 C 152.714844 239.007812 152.863281 239.753906 152.9375 240.503906 C 153.160156 244.167969 154.285156 247.609375 155.480469 251.050781 C 155.929688 252.324219 156.902344 253.296875 158.023438 254.269531 C 158.324219 252.546875 158.398438 250.902344 158.472656 249.257812 Z M 286.847656 106.667969 C 284.304688 104.722656 281.6875 103.152344 278.695312 102.101562 C 267.921875 98.289062 256.925781 97.839844 245.777344 99.785156 C 243.609375 100.160156 241.511719 100.683594 239.417969 101.054688 C 242.933594 99.1875 246.75 98.136719 250.566406 97.089844 C 261.863281 93.949219 272.933594 94.546875 283.78125 99.109375 C 283.558594 98.660156 283.257812 98.289062 283.035156 97.988281 C 280.488281 94.621094 277.945312 91.253906 275.328125 87.964844 C 274.207031 86.46875 273.082031 84.898438 271.664062 83.773438 C 266.949219 80.035156 262.160156 76.367188 256.625 73.972656 C 253.035156 72.476562 249.445312 71.058594 245.777344 69.636719 C 245.328125 69.484375 244.804688 69.335938 244.355469 69.261719 C 240.914062 68.664062 237.472656 68.289062 234.183594 67.464844 C 227.597656 65.820312 221.015625 65.746094 214.355469 66.34375 C 209.792969 66.792969 205.15625 67.09375 200.59375 67.464844 C 197.972656 67.691406 195.355469 68.0625 192.738281 68.363281 C 188.695312 68.886719 184.957031 70.308594 181.589844 72.476562 C 176.503906 75.769531 171.339844 78.988281 166.554688 82.652344 C 161.839844 86.316406 157.5 90.507812 153.609375 95.222656 C 148.300781 101.578125 142.539062 107.640625 137.003906 113.847656 C 129.96875 121.703125 124.734375 130.605469 120.019531 139.957031 C 116.28125 147.4375 114.632812 155.667969 111.566406 163.375 C 111.566406 163.449219 111.492188 163.523438 111.492188 163.597656 C 109.921875 172.199219 108.199219 180.804688 106.929688 189.484375 C 106.03125 195.917969 105.730469 202.425781 105.207031 208.933594 C 104.984375 211.703125 105.957031 214.09375 107.675781 216.191406 C 108.050781 216.640625 108.574219 216.9375 109.097656 217.164062 C 109.324219 217.238281 109.921875 217.085938 110.070312 216.863281 C 110.820312 215.667969 111.640625 214.394531 112.164062 213.121094 C 113.660156 209.382812 115.007812 205.640625 117.179688 202.273438 C 118.375 200.328125 119.421875 198.308594 120.542969 196.214844 C 121.441406 194.644531 123.011719 193.597656 124.585938 193.972656 C 126.003906 194.34375 126.753906 193.746094 127.351562 192.625 C 129.296875 188.808594 131.390625 185.070312 133.261719 181.253906 C 134.609375 178.558594 136.179688 176.242188 138.5 174.371094 C 138.722656 174.222656 138.949219 173.921875 139.097656 173.621094 C 139.546875 171.976562 139.921875 170.332031 140.445312 168.761719 C 144.109375 158.0625 149.195312 148.113281 155.929688 138.910156 C 161.539062 131.203125 167.75 124.023438 175.230469 118.039062 C 181.664062 112.949219 188.171875 107.9375 195.503906 104.125 C 206.054688 98.660156 217.199219 94.773438 228.722656 92.078125 C 232.460938 91.179688 236.351562 90.730469 240.09375 90.058594 C 240.09375 90.132812 240.167969 90.285156 240.167969 90.359375 C 239.792969 90.507812 239.417969 90.582031 239.042969 90.730469 C 232.984375 92.675781 226.925781 94.398438 221.015625 96.640625 C 210.242188 100.605469 199.917969 105.542969 190.71875 112.425781 C 184.507812 117.066406 178.449219 122.003906 172.835938 127.390625 C 163.558594 136.292969 156.527344 146.839844 150.542969 158.136719 C 150.46875 158.285156 150.46875 158.359375 150.320312 158.808594 C 152.039062 156.941406 153.683594 155.367188 155.183594 153.648438 C 156.304688 152.375 157.5 151.03125 158.324219 149.535156 C 160.195312 146.242188 162.363281 143.175781 165.058594 140.554688 C 168.722656 137.039062 172.464844 133.671875 176.277344 130.230469 C 182.488281 124.695312 189.21875 119.832031 196.550781 115.945312 C 204.03125 112.054688 211.441406 108.011719 219.519531 105.46875 C 223.410156 104.273438 227.300781 103.375 231.414062 103.449219 C 232.535156 103.449219 233.734375 103.675781 234.78125 104.125 C 236.949219 105.019531 237.324219 107.265625 235.828125 108.984375 C 235.230469 109.660156 234.554688 110.257812 233.808594 110.78125 C 231.339844 112.503906 228.796875 114.222656 226.253906 115.71875 C 221.390625 118.636719 216.378906 121.40625 211.8125 124.769531 C 203.882812 130.605469 195.953125 136.367188 188.847656 143.25 C 185.332031 146.691406 182.039062 150.28125 178.597656 153.796875 C 174.933594 157.539062 171.265625 161.277344 167.527344 165.09375 C 167.226562 165.394531 167 165.691406 166.703125 165.992188 C 168.273438 164.792969 169.84375 163.523438 171.191406 162.101562 C 176.800781 156.117188 183.757812 151.628906 189.746094 146.09375 C 190.042969 145.867188 190.34375 145.644531 190.640625 145.417969 C 194.308594 142.800781 198.046875 140.257812 201.640625 137.5625 C 205.230469 134.945312 208.894531 132.625 213.011719 130.980469 C 214.433594 130.382812 215.851562 129.707031 217.125 128.886719 C 222.886719 124.996094 229.320312 122.453125 235.828125 120.355469 C 247.347656 116.617188 259.242188 115.417969 271.363281 116.019531 C 276.449219 116.242188 281.460938 117.289062 286.175781 119.234375 C 289.917969 120.730469 293.507812 122.453125 297.171875 124.023438 C 297.246094 124.023438 297.324219 124.023438 297.546875 124.023438 C 297.171875 121.851562 296.796875 119.757812 294.703125 118.414062 C 293.507812 117.589844 292.386719 116.617188 291.335938 115.644531 C 284.753906 109.507812 276.601562 106.964844 268.070312 105.621094 C 260.664062 104.421875 253.257812 105.171875 245.851562 106.066406 C 244.65625 106.21875 243.457031 106.441406 242.1875 106.59375 C 242.1875 106.515625 242.113281 106.367188 242.113281 106.292969 C 246.152344 104.570312 250.492188 103.75 254.753906 103 C 265.675781 100.832031 276.449219 102.101562 286.847656 106.667969 Z M 296.574219 272.972656 C 298.144531 273.421875 299.566406 273.945312 301.0625 274.394531 C 301.289062 274.46875 301.585938 274.316406 301.8125 274.167969 C 303.234375 273.421875 304.652344 272.523438 306.148438 271.773438 C 315.800781 267.0625 326.050781 264.742188 336.746094 264.070312 C 338.542969 263.917969 340.265625 264.070312 342.132812 264.070312 C 342.058594 264.367188 342.058594 264.441406 341.984375 264.441406 C 341.835938 264.441406 341.609375 264.519531 341.460938 264.519531 C 331.660156 265.191406 322.308594 267.585938 313.632812 272.371094 C 309.140625 274.839844 305.101562 277.910156 300.988281 280.828125 C 300.539062 281.199219 300.015625 281.949219 300.015625 282.472656 C 300.089844 283.296875 301.0625 283.445312 301.734375 283.371094 C 303.757812 283.070312 305.777344 282.847656 307.796875 282.398438 C 313.78125 281.050781 319.691406 279.332031 325.675781 278.28125 C 331.0625 277.308594 336.597656 276.785156 342.132812 276.414062 C 349.015625 276.039062 355.824219 276.1875 362.332031 279.03125 C 363.378906 279.480469 364.351562 279.929688 365.398438 280.378906 C 367.71875 281.351562 369.441406 280.226562 369.515625 277.683594 C 369.589844 275.664062 369.289062 273.71875 368.394531 271.925781 C 367.34375 269.828125 366.371094 267.808594 365.101562 265.863281 C 362.183594 261.226562 359.117188 256.664062 356.125 252.097656 C 355.898438 251.800781 355.675781 251.5 355.449219 251.277344 C 352.757812 248.433594 350.140625 245.589844 347.445312 242.746094 C 346.921875 242.222656 346.546875 241.625 346.097656 241.101562 C 345.726562 240.652344 345.351562 240.054688 344.828125 239.679688 C 339.441406 236.390625 333.753906 233.621094 327.695312 231.824219 C 322.90625 230.402344 317.96875 229.730469 312.957031 230.179688 C 303.980469 230.925781 295.601562 233.769531 287.972656 238.410156 C 281.6875 242.300781 275.628906 246.5625 269.566406 250.902344 C 264.332031 254.644531 260.214844 259.429688 257.074219 265.042969 C 256.027344 266.988281 255.351562 269.007812 256.476562 271.027344 C 257.296875 272.523438 258.496094 273.871094 259.691406 274.992188 C 260.441406 275.738281 261.5625 276.261719 262.609375 276.5625 C 265.527344 277.308594 268.445312 277.234375 271.4375 276.785156 C 271.738281 276.710938 272.109375 276.414062 272.1875 276.1875 C 272.410156 274.839844 273.234375 274.019531 274.207031 273.195312 C 279.441406 268.558594 285.351562 265.042969 291.488281 261.75 C 291.5625 261.675781 291.636719 261.75 291.9375 261.675781 C 286.625 265.640625 281.386719 269.378906 277.722656 274.917969 C 278.019531 274.917969 278.171875 274.917969 278.246094 274.917969 C 281.910156 274.019531 285.503906 273.195312 289.316406 273.121094 C 289.542969 273.121094 289.917969 272.820312 289.992188 272.597656 C 290.515625 270.800781 291.710938 269.605469 293.132812 268.632812 C 295.152344 267.285156 297.246094 265.9375 299.34375 264.742188 C 306.824219 260.703125 314.902344 258.683594 323.28125 257.410156 C 325.453125 257.113281 327.621094 256.886719 329.789062 256.664062 C 329.789062 256.738281 329.863281 256.886719 329.863281 256.960938 C 317.371094 259.65625 305.703125 263.695312 296.574219 272.972656 Z M 153.3125 72.476562 C 150.09375 71.730469 147.25 70.90625 144.335938 70.457031 C 138.199219 69.636719 132.140625 70.457031 126.304688 72.105469 C 120.695312 73.675781 115.382812 76.070312 110.519531 79.285156 C 105.507812 82.578125 100.570312 85.871094 96.605469 90.507812 C 94.285156 93.277344 91.742188 95.820312 89.496094 98.660156 C 87.550781 101.054688 85.609375 103.523438 84.261719 106.292969 C 75.507812 123.199219 69.972656 141.078125 68.402344 160.082031 C 67.800781 167.710938 67.355469 175.34375 68.550781 182.898438 C 69 185.742188 69.074219 188.585938 70.195312 191.203125 C 71.691406 194.71875 73.1875 198.234375 74.761719 201.675781 C 75.882812 204.070312 77.828125 205.792969 79.847656 207.585938 C 79.996094 207.136719 80.070312 206.988281 80.070312 206.765625 C 80.894531 201.601562 81.71875 196.441406 82.539062 191.277344 C 83.289062 186.863281 83.738281 182.375 85.683594 178.1875 C 85.757812 177.960938 85.757812 177.664062 85.757812 177.363281 C 85.90625 175.117188 85.832031 172.875 86.132812 170.703125 C 87.105469 162.773438 89.347656 155.070312 91.441406 147.363281 C 95.632812 131.953125 101.542969 117.363281 110.296875 103.898438 C 110.519531 103.523438 110.820312 103.074219 111.117188 102.703125 C 111.191406 102.777344 111.269531 102.777344 111.417969 102.851562 C 111.269531 103.226562 111.117188 103.523438 110.96875 103.898438 C 109.847656 106.21875 108.648438 108.460938 107.527344 110.78125 C 101.765625 123.050781 97.953125 135.917969 95.40625 149.234375 C 93.6875 158.511719 91.816406 167.789062 89.945312 176.988281 C 89.648438 178.410156 90.320312 179.308594 90.917969 180.503906 C 92.042969 179.457031 92.9375 178.484375 93.238281 177.140625 C 93.761719 174.820312 94.136719 172.425781 94.808594 170.105469 C 96.007812 165.917969 96.753906 161.578125 98.847656 157.6875 C 101.765625 152.300781 103.113281 146.390625 104.832031 140.632812 C 105.804688 137.488281 106.628906 134.347656 108.273438 131.503906 C 109.171875 129.859375 109.847656 128.136719 110.519531 126.34375 C 111.042969 125.070312 111.34375 123.722656 111.867188 122.453125 C 114.335938 116.691406 116.355469 110.707031 119.347656 105.246094 C 119.570312 104.796875 119.722656 104.273438 119.945312 103.824219 C 121.066406 101.730469 121.964844 99.558594 123.3125 97.691406 C 126.304688 93.574219 129.523438 89.609375 132.738281 85.71875 C 135.28125 82.578125 138.199219 79.882812 141.789062 77.941406 C 145.230469 76.070312 148.746094 74.574219 152.265625 72.851562 C 152.414062 72.851562 152.714844 72.703125 153.3125 72.476562 Z M 63.539062 179.382812 C 63.613281 179.382812 63.761719 179.308594 63.835938 179.308594 C 63.988281 174.746094 64.136719 170.179688 64.359375 165.617188 C 64.734375 157.386719 65.410156 149.160156 67.054688 141.078125 C 69.449219 129.035156 72.890625 117.441406 78.800781 106.667969 C 78.875 106.515625 78.875 106.441406 78.949219 106.144531 C 75.058594 107.488281 71.394531 108.761719 68.25 111.378906 C 66.53125 112.800781 64.808594 114.148438 63.015625 115.34375 C 59.574219 117.515625 55.757812 118.636719 51.644531 118.5625 C 48.578125 118.488281 45.734375 119.160156 42.964844 120.507812 C 42.441406 120.730469 41.992188 121.179688 41.617188 121.554688 C 39.449219 123.722656 38.550781 126.417969 38.027344 129.410156 C 36.757812 137.191406 36.605469 144.894531 39.449219 152.527344 C 42.066406 159.484375 44.910156 166.367188 47.976562 173.171875 C 50.371094 178.558594 54.1875 182.824219 58.300781 186.863281 C 59.199219 187.761719 60.546875 188.285156 61.667969 188.957031 C 61.742188 188.882812 61.816406 188.734375 61.890625 188.660156 C 61.742188 188.433594 61.667969 188.136719 61.519531 187.910156 C 60.171875 184.695312 58.300781 181.703125 57.703125 178.1875 C 55.234375 164.644531 55.757812 151.179688 58.527344 137.714844 C 58.976562 135.617188 59.574219 133.523438 60.171875 131.355469 C 60.246094 131.355469 60.320312 131.355469 60.472656 131.429688 C 57.554688 147.664062 58.003906 163.671875 63.539062 179.382812 Z M 355.824219 233.695312 C 356.421875 231.078125 356.574219 228.757812 355.078125 226.664062 C 353.804688 224.792969 352.457031 222.921875 351.1875 221.050781 C 349.316406 218.359375 346.847656 216.191406 344.003906 214.542969 C 337.421875 210.730469 330.613281 207.511719 323.28125 205.34375 C 318.046875 203.769531 312.882812 202.199219 307.722656 200.554688 C 304.355469 199.507812 300.988281 198.683594 297.472656 198.535156 C 292.609375 198.308594 287.746094 198.308594 283.109375 200.105469 C 280.488281 201.152344 277.796875 201.976562 275.179688 202.949219 C 264.40625 206.765625 254.753906 212.523438 246.527344 220.605469 C 245.777344 221.351562 245.03125 222.101562 244.507812 222.996094 C 242.5625 226.214844 240.691406 229.429688 238.894531 232.722656 C 238.519531 233.320312 238.371094 234.070312 238.148438 234.742188 C 239.566406 233.394531 240.839844 231.976562 242.1875 230.628906 C 247.5 225.390625 253.410156 220.902344 259.394531 216.5625 C 261.488281 215.066406 263.65625 213.722656 266.125 213.046875 C 271.960938 211.328125 277.871094 209.679688 284.007812 209.457031 C 289.167969 209.234375 294.40625 209.007812 299.566406 209.53125 C 305.925781 210.207031 312.285156 211.476562 318.644531 212.597656 C 325.898438 213.871094 332.859375 215.890625 339.441406 219.257812 C 342.65625 220.902344 345.875 222.699219 348.34375 225.464844 C 350.511719 227.933594 352.757812 230.402344 354.925781 232.871094 C 355.078125 233.171875 355.375 233.320312 355.824219 233.695312 Z M 325.898438 190.679688 C 326.199219 189.78125 325.75 188.808594 324.777344 188.359375 C 324.402344 188.136719 323.878906 188.0625 323.429688 187.984375 C 322.085938 187.835938 321.113281 188.359375 320.886719 189.40625 C 320.664062 190.453125 321.261719 191.351562 322.535156 191.800781 C 322.90625 191.953125 323.355469 192.027344 323.582031 192.101562 C 324.777344 192.027344 325.527344 191.652344 325.898438 190.679688 Z M 312.359375 190.453125 C 312.808594 190.378906 313.40625 190.007812 313.480469 189.707031 C 313.554688 189.257812 313.332031 188.734375 313.03125 188.285156 C 312.808594 187.984375 312.359375 187.910156 311.984375 187.835938 C 310.339844 187.386719 309.367188 188.734375 308.09375 189.40625 C 307.871094 189.558594 307.871094 190.53125 308.09375 190.902344 C 308.320312 191.277344 308.992188 191.652344 309.441406 191.578125 C 309.964844 191.503906 310.414062 190.902344 311.085938 190.378906 C 311.3125 190.378906 311.910156 190.605469 312.359375 190.453125 Z M 317.671875 190.378906 C 316.773438 190.378906 316.101562 191.054688 316.101562 191.953125 C 316.101562 193.148438 317.519531 194.644531 318.71875 194.644531 C 319.617188 194.644531 320.289062 193.972656 320.289062 193.074219 C 320.289062 191.875 318.867188 190.378906 317.671875 190.378906 Z M 330.6875 193.894531 C 331.136719 194.570312 331.734375 195.167969 332.484375 195.542969 C 332.859375 195.765625 333.828125 195.691406 334.054688 195.390625 C 334.355469 195.09375 334.355469 194.121094 334.128906 193.820312 C 333.457031 193.148438 332.558594 192.699219 331.734375 192.175781 C 330.6875 192.398438 330.164062 193.148438 330.6875 193.894531 Z M 299.117188 187.539062 C 298.667969 187.6875 298.21875 188.210938 298.070312 188.585938 C 297.847656 189.257812 298.667969 190.082031 299.34375 189.929688 C 299.792969 189.855469 300.164062 189.40625 300.613281 189.109375 C 300.464844 188.136719 299.792969 187.3125 299.117188 187.539062 Z M 315.050781 183.574219 C 314.304688 183.421875 313.855469 183.945312 313.78125 184.695312 C 313.78125 185.441406 314.230469 185.890625 314.976562 185.964844 C 315.726562 185.964844 316.175781 185.59375 316.25 184.46875 C 316.023438 184.171875 315.578125 183.648438 315.050781 183.574219 Z M 306.300781 184.097656 C 305.851562 183.796875 305.476562 183.273438 304.953125 183.199219 C 304.28125 183.046875 303.832031 183.574219 303.832031 184.320312 C 303.832031 184.992188 304.28125 185.515625 304.953125 185.441406 C 305.402344 185.367188 305.851562 184.917969 306.300781 184.621094 C 306.300781 184.46875 306.300781 184.320312 306.300781 184.097656 Z M 288.121094 191.578125 C 288.195312 190.828125 287.597656 190.453125 286.847656 190.453125 C 286.175781 190.453125 285.652344 190.828125 285.800781 191.503906 C 285.875 191.953125 286.398438 192.398438 287 193.074219 C 287.523438 192.398438 288.046875 192.027344 288.121094 191.578125 Z M 283.40625 148.484375 C 283.632812 147.664062 283.183594 146.765625 282.359375 146.464844 C 281.386719 146.09375 280.714844 146.542969 280.191406 147.664062 C 279.070312 147.664062 278.097656 147.511719 277.125 147.738281 C 276 147.960938 275.851562 149.234375 276.601562 150.058594 C 278.019531 151.554688 279.816406 151.253906 280.714844 149.382812 C 282.285156 149.757812 283.109375 149.535156 283.40625 148.484375 Z M 289.242188 149.308594 C 289.242188 148.113281 287.820312 146.988281 286.550781 147.066406 C 285.351562 147.066406 284.453125 147.960938 284.453125 149.085938 C 284.453125 150.355469 285.425781 151.179688 286.921875 151.179688 C 288.570312 151.179688 289.316406 150.582031 289.242188 149.308594 Z M 297.769531 150.878906 C 297.847656 150.058594 297.246094 149.234375 296.351562 149.160156 C 295.675781 149.085938 294.855469 149.160156 294.253906 149.457031 C 293.882812 149.609375 293.433594 150.28125 293.433594 150.65625 C 293.433594 151.03125 293.957031 151.554688 294.328125 151.777344 C 294.777344 152.078125 295.453125 152.078125 295.824219 152.152344 C 296.949219 152.226562 297.695312 151.703125 297.769531 150.878906 Z M 270.691406 144.222656 C 269.867188 144.296875 269.195312 144.96875 269.269531 145.792969 C 269.269531 146.765625 270.242188 147.589844 271.289062 147.589844 C 272.109375 147.589844 272.785156 146.988281 272.710938 146.167969 C 272.710938 145.195312 271.664062 144.148438 270.691406 144.222656 Z M 255.277344 155.21875 C 254.457031 155.21875 253.78125 155.890625 253.78125 156.714844 C 253.78125 157.6875 254.605469 158.4375 255.726562 158.4375 C 256.625 158.4375 257.222656 157.914062 257.222656 157.089844 C 257.222656 156.117188 256.25 155.144531 255.277344 155.21875 Z M 275.328125 153.273438 C 275.328125 152.375 274.730469 151.925781 273.90625 151.851562 C 272.933594 151.777344 271.886719 152.675781 271.886719 153.5 C 271.886719 154.320312 272.484375 154.84375 273.457031 154.84375 C 274.65625 154.84375 275.402344 154.246094 275.328125 153.273438 Z M 260.289062 147.886719 C 259.992188 147.960938 259.691406 148.335938 259.46875 148.636719 C 259.765625 148.933594 260.066406 149.382812 260.367188 149.457031 C 260.589844 149.535156 260.964844 149.085938 261.488281 148.636719 C 260.890625 148.1875 260.589844 147.8125 260.289062 147.886719 Z M 266.050781 154.695312 C 266.199219 154.695312 266.425781 154.320312 266.648438 154.171875 C 266.425781 153.949219 266.199219 153.648438 265.902344 153.5 C 265.753906 153.421875 265.453125 153.796875 265.003906 154.023438 C 265.527344 154.394531 265.753906 154.695312 266.050781 154.695312 Z M 202.835938 74.125 C 202.386719 74.945312 202.613281 75.621094 203.285156 76.21875 C 203.359375 76.292969 203.359375 76.519531 203.285156 76.667969 C 202.984375 77.414062 203.507812 77.789062 203.957031 77.789062 C 204.707031 77.863281 205.53125 77.714844 206.203125 77.492188 C 207.472656 76.96875 208 75.84375 207.773438 74.722656 C 207.472656 73.675781 206.425781 72.851562 205.15625 72.925781 C 204.257812 72.925781 203.359375 73.152344 202.835938 74.125 Z M 191.839844 77.863281 C 191.839844 79.0625 192.8125 80.035156 194.082031 80.035156 C 195.28125 80.035156 196.253906 79.136719 196.253906 77.9375 C 196.253906 76.742188 195.28125 75.84375 194.007812 75.84375 C 192.8125 75.84375 191.839844 76.742188 191.839844 77.863281 Z M 218.921875 75.917969 C 218.921875 74.871094 218.097656 74.125 217.050781 74.125 C 215.929688 74.125 214.878906 75.097656 214.878906 76.144531 C 214.878906 77.117188 215.851562 77.714844 217.425781 77.640625 C 218.320312 77.640625 218.996094 76.890625 218.921875 75.917969 Z M 227.148438 79.285156 C 226.402344 79.210938 225.726562 79.960938 225.726562 80.855469 C 225.726562 81.679688 226.253906 81.90625 226.925781 81.90625 C 227.75 81.90625 228.273438 81.457031 228.347656 80.632812 C 228.347656 79.882812 227.972656 79.359375 227.148438 79.285156 Z M 190.34375 86.765625 C 190.71875 86.316406 191.242188 85.871094 191.316406 85.347656 C 191.464844 84.597656 190.867188 84.074219 190.117188 84.074219 C 189.371094 84.074219 188.847656 84.597656 188.921875 85.269531 C 188.996094 85.792969 189.519531 86.242188 189.820312 86.691406 C 190.042969 86.765625 190.191406 86.765625 190.34375 86.765625 Z M 207.773438 82.503906 C 207.921875 81.753906 207.324219 81.304688 206.578125 81.304688 C 205.753906 81.304688 205.453125 81.980469 205.53125 82.652344 C 205.53125 83.027344 206.054688 83.402344 206.578125 84 C 207.175781 83.324219 207.699219 82.953125 207.773438 82.503906 Z M 200.890625 80.707031 C 200.441406 80.410156 200.066406 79.960938 199.621094 79.882812 C 198.945312 79.808594 198.347656 80.332031 198.496094 81.007812 C 198.570312 81.457031 199.171875 81.980469 199.621094 82.054688 C 199.992188 82.128906 200.441406 81.53125 200.890625 81.304688 C 200.890625 81.082031 200.890625 80.933594 200.890625 80.707031 Z M 234.332031 78.386719 C 234.332031 78.164062 233.957031 77.9375 233.734375 77.863281 C 233.582031 77.863281 233.210938 78.164062 233.210938 78.386719 C 233.210938 78.613281 233.433594 78.835938 233.734375 79.285156 C 234.105469 78.835938 234.40625 78.613281 234.332031 78.386719 Z M 342.207031 253.894531 C 343.40625 254.34375 344.601562 254.867188 345.875 255.242188 C 346.25 255.316406 346.996094 255.242188 347.070312 254.941406 C 347.296875 254.566406 347.371094 253.746094 347.070312 253.445312 C 345.726562 252.175781 344.753906 250.527344 343.628906 249.105469 C 343.480469 248.882812 343.179688 248.65625 342.957031 248.65625 C 342.359375 248.582031 341.609375 248.359375 341.3125 248.65625 C 340.9375 248.957031 340.863281 249.78125 340.863281 250.378906 C 340.9375 251.050781 341.238281 251.726562 341.386719 252.25 C 341.160156 253.222656 341.460938 253.671875 342.207031 253.894531 Z M 343.03125 243.496094 C 342.582031 243.644531 342.058594 244.242188 341.984375 244.691406 C 341.910156 245.066406 342.433594 245.742188 342.808594 245.890625 C 343.855469 246.1875 344.527344 246.863281 345.203125 247.609375 C 345.5 247.910156 346.25 248.210938 346.546875 248.058594 C 346.996094 247.910156 347.222656 247.238281 347.296875 247.085938 C 347.371094 244.617188 344.976562 242.824219 343.03125 243.496094 Z M 323.878906 238.183594 C 323.730469 238.707031 323.804688 239.679688 324.179688 240.054688 C 324.925781 240.726562 325.824219 241.175781 326.796875 241.402344 C 327.246094 241.550781 328.070312 241.101562 328.292969 240.726562 C 328.519531 240.277344 328.519531 239.304688 328.21875 239.007812 C 327.394531 238.257812 326.421875 237.734375 325.375 237.0625 C 324.703125 237.4375 324.03125 237.734375 323.878906 238.183594 Z M 333.082031 240.953125 C 333.382812 242.148438 334.277344 242.898438 335.402344 243.347656 C 336.222656 243.644531 337.046875 243.046875 337.121094 242.148438 C 337.269531 240.878906 335.625 239.15625 334.355469 239.15625 C 333.457031 239.15625 332.859375 239.980469 333.082031 240.953125 Z M 344.753906 257.261719 C 344.753906 258.308594 346.25 259.953125 347.296875 259.878906 C 348.117188 259.878906 348.644531 259.207031 348.71875 258.308594 C 348.71875 257.113281 347.519531 255.691406 346.324219 255.691406 C 345.5 255.691406 344.828125 256.363281 344.753906 257.261719 Z M 351.1875 266.015625 C 350.363281 266.015625 349.691406 266.6875 349.691406 267.511719 C 349.691406 268.40625 350.511719 269.230469 351.558594 269.230469 C 352.382812 269.230469 352.832031 268.78125 352.832031 268.035156 C 352.832031 266.910156 352.007812 266.015625 351.1875 266.015625 Z M 334.355469 249.554688 C 334.355469 248.808594 333.679688 248.210938 332.632812 248.132812 C 331.660156 248.132812 330.914062 248.65625 330.914062 249.40625 C 330.914062 250.152344 331.511719 250.679688 332.558594 250.679688 C 333.753906 250.679688 334.355469 250.304688 334.355469 249.554688 Z M 352.382812 255.316406 C 351.785156 255.316406 351.261719 255.539062 351.1875 256.289062 C 351.1875 256.960938 352.457031 258.234375 353.207031 258.085938 C 353.65625 258.007812 354.027344 257.558594 354.253906 257.410156 C 354.328125 256.0625 353.429688 255.316406 352.382812 255.316406 Z M 314.679688 244.542969 C 314.679688 245.441406 315.203125 245.816406 316.023438 245.890625 C 316.921875 245.964844 317.746094 245.367188 317.671875 244.617188 C 317.597656 243.644531 316.921875 243.421875 316.175781 243.347656 C 315.351562 243.347656 314.679688 243.796875 314.679688 244.542969 Z M 342.207031 262.496094 C 342.359375 261.898438 341.160156 261.152344 340.113281 261.226562 C 339.816406 261.226562 339.515625 261.675781 339.214844 261.898438 C 339.816406 262.421875 340.488281 263.023438 341.238281 263.769531 C 341.761719 263.171875 342.207031 262.871094 342.207031 262.496094 Z M 116.355469 83.476562 C 116.128906 83.773438 116.429688 84.671875 116.730469 84.972656 C 117.703125 85.871094 118.898438 86.242188 120.171875 85.871094 C 120.695312 85.71875 121.367188 85.046875 121.441406 84.523438 C 121.515625 84 120.917969 83.25 120.46875 82.953125 C 119.871094 82.578125 119.046875 82.503906 118 82.277344 C 117.550781 82.578125 116.804688 82.878906 116.355469 83.476562 Z M 112.164062 94.546875 C 113.136719 94.847656 114.785156 94.023438 115.308594 93.125 C 115.832031 92.152344 115.457031 91.03125 114.484375 90.808594 C 113.136719 90.433594 111.042969 91.855469 110.96875 93.648438 C 111.269531 93.875 111.640625 94.398438 112.164062 94.546875 Z M 98.847656 100.007812 C 98.773438 100.382812 99.148438 101.054688 99.523438 101.28125 C 100.421875 101.730469 101.46875 102.101562 102.441406 102.253906 C 102.8125 102.328125 103.636719 101.878906 103.710938 101.503906 C 103.785156 101.128906 103.414062 100.382812 103.039062 100.160156 C 102.140625 99.710938 101.09375 99.484375 99.894531 99.035156 C 99.523438 99.335938 98.925781 99.558594 98.847656 100.007812 Z M 125.929688 80.78125 C 125.929688 79.882812 125.109375 79.136719 123.910156 79.136719 C 122.863281 79.136719 122.117188 79.734375 122.117188 80.558594 C 122.117188 81.457031 122.9375 82.128906 124.136719 82.128906 C 125.257812 82.203125 125.929688 81.605469 125.929688 80.78125 Z M 104.910156 89.535156 C 104.085938 89.460938 103.261719 90.359375 103.261719 91.179688 C 103.261719 92.078125 103.710938 92.527344 104.535156 92.601562 C 105.359375 92.675781 106.105469 91.855469 106.105469 90.65625 C 106.03125 90.132812 105.730469 89.609375 104.910156 89.535156 Z M 128.625 78.988281 C 128.398438 78.835938 128.101562 78.539062 128.023438 78.539062 C 127.726562 78.761719 127.425781 79.0625 127.203125 79.285156 C 127.203125 79.359375 127.425781 79.585938 127.652344 79.882812 C 128.101562 79.511719 128.398438 79.285156 128.625 78.988281 Z M 56.582031 127.238281 C 57.03125 126.941406 57.554688 126.34375 57.554688 125.894531 C 57.554688 125.519531 57.03125 124.921875 56.582031 124.695312 C 56.058594 124.472656 55.308594 124.546875 54.710938 124.621094 C 53.515625 124.847656 52.765625 125.59375 52.988281 126.417969 C 53.214844 127.539062 54.261719 127.390625 55.234375 127.464844 C 55.535156 127.464844 56.132812 127.464844 56.582031 127.238281 Z M 43.9375 131.203125 C 42.964844 131.203125 42.140625 131.953125 42.21875 132.925781 C 42.21875 133.824219 42.890625 134.421875 43.714844 134.347656 C 44.609375 134.273438 45.582031 133.449219 45.582031 132.550781 C 45.507812 131.726562 44.835938 131.128906 43.9375 131.203125 Z M 45.882812 126.867188 C 45.507812 126.566406 45.136719 126.042969 44.761719 126.117188 C 44.386719 126.191406 43.789062 126.714844 43.789062 127.015625 C 43.789062 127.390625 44.3125 127.914062 44.6875 127.988281 C 44.984375 128.0625 45.433594 127.539062 45.808594 127.316406 C 45.882812 127.164062 45.882812 127.015625 45.882812 126.867188 Z M 49.996094 136.964844 C 50.148438 137.414062 50.671875 137.789062 51.121094 138.011719 C 51.269531 138.085938 51.941406 137.414062 51.941406 137.191406 C 51.867188 136.742188 51.417969 136.292969 50.96875 135.617188 C 50.445312 136.21875 49.921875 136.742188 49.996094 136.964844 Z M 44.386719 140.40625 C 44.085938 140.40625 43.789062 140.929688 43.488281 141.230469 C 43.789062 141.527344 44.085938 142.050781 44.460938 142.050781 C 44.761719 142.128906 45.136719 141.601562 45.734375 141.15625 C 45.136719 140.855469 44.761719 140.40625 44.386719 140.40625 Z M 45.210938 149.382812 C 44.910156 149.382812 44.6875 149.832031 44.386719 150.058594 C 44.609375 150.355469 44.835938 150.730469 45.210938 150.804688 C 45.433594 150.878906 45.734375 150.429688 46.257812 150.132812 C 45.808594 149.757812 45.507812 149.382812 45.210938 149.382812 Z M 45.210938 149.382812 " fill-opacity="1" fill-rule="nonzero"/></g></svg>