<svg xmlns="http://www.w3.org/2000/svg" xmlns:xlink="http://www.w3.org/1999/xlink" width="500" zoomAndPan="magnify" viewBox="0 0 375 374.999991" height="500" preserveAspectRatio="xMidYMid meet" version="1.0"><defs><clipPath id="ee742416cb"><path d="M 32 76 L 343.921875 76 L 343.921875 375 L 32 375 Z M 32 76 " clip-rule="nonzero"/></clipPath></defs><g clip-path="url(#ee742416cb)"><path fill="#000000" d="M 320.84375 375 L 55.816406 375 C 49.382812 375 43.136719 372.316406 38.726562 367.640625 C 34.300781 362.964844 31.960938 356.59375 32.324219 350.164062 L 46.277344 99.117188 C 46.964844 86.640625 57.277344 76.882812 69.769531 76.882812 L 306.890625 76.882812 C 319.386719 76.882812 329.695312 86.640625 330.386719 99.117188 L 344.339844 350.164062 C 344.703125 356.59375 342.363281 362.964844 337.9375 367.640625 C 333.511719 372.316406 327.28125 375 320.84375 375 Z M 69.769531 92.574219 C 65.613281 92.574219 62.160156 95.835938 61.9375 99.980469 L 47.984375 351.023438 C 47.875 353.207031 48.628906 355.277344 50.121094 356.863281 C 51.628906 358.429688 53.636719 359.308594 55.816406 359.308594 L 320.84375 359.308594 C 323.027344 359.308594 325.050781 358.429688 326.542969 356.863281 C 328.035156 355.277344 328.800781 353.207031 328.675781 351.023438 L 314.722656 99.980469 C 314.503906 95.835938 311.050781 92.574219 306.890625 92.574219 Z M 69.769531 92.574219 " fill-opacity="1" fill-rule="nonzero"/></g><path fill="#000000" d="M 258.960938 140.019531 C 254.628906 140.019531 251.113281 136.507812 251.113281 132.175781 L 251.113281 78.328125 C 251.113281 43.714844 222.953125 15.566406 188.332031 15.566406 C 153.707031 15.566406 125.550781 43.714844 125.550781 78.328125 L 125.550781 132.175781 C 125.550781 136.507812 122.035156 140.019531 117.703125 140.019531 C 113.371094 140.019531 109.855469 136.507812 109.855469 132.175781 L 109.855469 78.328125 C 109.855469 35.066406 145.058594 -0.125 188.332031 -0.125 C 231.601562 -0.125 266.808594 35.066406 266.808594 78.328125 L 266.808594 132.175781 C 266.808594 136.507812 263.292969 140.019531 258.960938 140.019531 Z M 258.960938 140.019531 " fill-opacity="1" fill-rule="nonzero"/></svg>