<svg xmlns="http://www.w3.org/2000/svg" xmlns:xlink="http://www.w3.org/1999/xlink" width="500" zoomAndPan="magnify" viewBox="0 0 375 374.999991" height="500" preserveAspectRatio="xMidYMid meet" version="1.0"><defs><clipPath id="b9bd7ea05d"><path d="M 41.25 0 L 333.75 0 L 333.75 363 L 41.25 363 Z M 41.25 0 " clip-rule="nonzero"/></clipPath></defs><g clip-path="url(#b9bd7ea05d)"><path fill="#ffffff" d="M 228.132812 267.894531 C 263.636719 211.996094 302.4375 149.953125 302.4375 116.148438 C 302.4375 52.085938 250.328125 -0.03125 186.273438 -0.03125 C 122.210938 -0.03125 70.09375 52.085938 70.09375 116.148438 C 70.09375 148 110.433594 213.425781 144.765625 268.082031 C 94.480469 272.832031 41.421875 287.167969 41.421875 314.230469 C 41.421875 328.96875 57.371094 341.40625 87.546875 350.191406 C 172.652344 374.972656 333.578125 361.035156 333.578125 314.230469 C 333.578125 286.722656 279.417969 272.441406 228.132812 267.894531 Z M 186.273438 305.355469 C 155.847656 254.273438 85.714844 152.417969 85.714844 116.148438 C 85.714844 60.699219 130.824219 15.589844 186.273438 15.589844 C 241.710938 15.589844 286.816406 60.699219 286.816406 116.148438 C 286.816406 154.796875 217.03125 253.824219 186.273438 305.355469 Z M 186.273438 305.355469 " fill-opacity="1" fill-rule="nonzero"/></g><path fill="#ffffff" d="M 186.273438 55.816406 C 155.265625 55.816406 130.035156 81.046875 130.035156 112.0625 C 130.035156 143.0625 155.265625 168.285156 186.273438 168.285156 C 217.273438 168.285156 242.496094 143.0625 242.496094 112.0625 C 242.496094 81.046875 217.273438 55.816406 186.273438 55.816406 Z M 186.273438 152.664062 C 163.878906 152.664062 145.65625 134.449219 145.65625 112.0625 C 145.65625 89.664062 163.878906 71.4375 186.273438 71.4375 C 208.660156 71.4375 226.875 89.664062 226.875 112.0625 C 226.875 134.449219 208.660156 152.664062 186.273438 152.664062 Z M 186.273438 152.664062 " fill-opacity="1" fill-rule="nonzero"/></svg>