<svg xmlns="http://www.w3.org/2000/svg" xmlns:xlink="http://www.w3.org/1999/xlink" width="500" zoomAndPan="magnify" viewBox="0 0 375 374.999991" height="500" preserveAspectRatio="xMidYMid meet" version="1.0"><path fill="#ffffff" d="M 188.726562 0 C 240.179688 0 286.789062 20.878906 320.507812 54.597656 C 354.226562 88.316406 375.054688 134.871094 375.054688 186.328125 C 375.054688 237.785156 354.226562 284.339844 320.507812 318.058594 C 286.789062 351.777344 240.179688 372.65625 188.726562 372.65625 C 172.105469 372.65625 155.964844 370.472656 140.570312 366.371094 C 125.445312 362.324219 111.0625 356.410156 97.691406 348.898438 L 0 375.054688 L 26.152344 277.363281 C 18.644531 263.992188 12.730469 249.609375 8.734375 234.535156 C 4.632812 219.140625 2.398438 202.949219 2.398438 186.328125 C 2.398438 134.871094 23.277344 88.316406 56.996094 54.597656 C 90.714844 20.878906 137.269531 0 188.726562 0 Z M 312.890625 62.164062 C 281.144531 30.363281 237.25 10.707031 188.726562 10.707031 C 140.253906 10.707031 96.359375 30.363281 64.558594 62.164062 C 32.8125 93.910156 13.15625 137.855469 13.15625 186.328125 C 13.15625 202.042969 15.179688 217.277344 19.070312 231.765625 C 23.066406 246.785156 28.976562 260.957031 36.542969 274.003906 L 37.074219 278.054688 L 15.128906 359.925781 L 97 337.980469 L 101.046875 338.511719 C 114.152344 346.074219 128.320312 351.988281 143.289062 355.984375 C 157.777344 359.871094 173.011719 361.949219 188.726562 361.949219 C 237.25 361.949219 281.144531 342.292969 312.890625 310.492188 C 344.691406 278.746094 364.347656 234.800781 364.347656 186.328125 C 364.347656 137.855469 344.691406 93.910156 312.890625 62.164062 Z M 312.890625 62.164062 " fill-opacity="1" fill-rule="nonzero"/><path fill="#ffffff" d="M 144.085938 167.738281 C 148.1875 179.617188 157.988281 193.304688 169.867188 205.183594 C 181.746094 217.0625 195.488281 226.917969 207.367188 230.964844 L 221.21875 217.117188 C 223.933594 214.398438 227.289062 212.695312 230.859375 212.003906 C 234.375 211.308594 238.15625 211.683594 241.671875 213.175781 L 244.921875 214.453125 C 255.308594 218.875 267.453125 223.773438 279.546875 228.730469 L 280.824219 229.261719 C 283.433594 230.273438 285.671875 231.816406 287.480469 233.789062 C 289.292969 235.761719 290.679688 238.105469 291.53125 240.765625 C 292.382812 243.378906 292.597656 246.09375 292.277344 248.757812 L 292.328125 248.757812 C 291.957031 251.421875 291.050781 253.976562 289.558594 256.375 C 286.097656 261.859375 282.316406 266.601562 278.320312 270.597656 C 262.445312 286.46875 242.738281 291.53125 222.335938 289.667969 C 202.574219 287.800781 182.226562 279.386719 164.328125 268.144531 C 152.398438 260.636719 141.53125 251.898438 132.6875 243.058594 L 132.050781 242.363281 C 123.152344 233.523438 114.417969 222.65625 106.90625 210.722656 C 95.667969 192.878906 87.25 172.53125 85.441406 152.714844 C 83.523438 132.367188 88.582031 112.660156 104.457031 96.734375 C 108.503906 92.738281 113.246094 88.957031 118.730469 85.492188 C 121.074219 84.003906 123.6875 83.097656 126.296875 82.777344 C 128.960938 82.457031 131.675781 82.722656 134.285156 83.523438 C 136.949219 84.429688 139.292969 85.761719 141.265625 87.570312 C 143.234375 89.433594 144.78125 91.671875 145.84375 94.230469 L 146.589844 96.039062 C 151.4375 107.972656 156.285156 119.902344 160.601562 130.183594 C 160.652344 130.183594 161.773438 133.0625 161.933594 133.433594 C 163.421875 136.949219 163.796875 140.679688 163.105469 144.195312 C 162.410156 147.761719 160.652344 151.117188 157.988281 153.835938 Z M 162.304688 212.800781 C 148.242188 198.738281 136.738281 181.960938 132.847656 167.578125 L 132.050781 164.59375 L 150.371094 146.269531 C 151.542969 145.097656 152.289062 143.660156 152.558594 142.222656 C 152.875 140.679688 152.714844 139.082031 152.078125 137.589844 L 150.746094 134.285156 C 145.527344 121.875 141.105469 110.957031 136.628906 100.089844 L 135.882812 98.277344 C 135.457031 97.160156 134.820312 96.199219 133.964844 95.402344 C 133.167969 94.65625 132.15625 94.070312 131.035156 93.75 C 129.863281 93.378906 128.691406 93.269531 127.628906 93.378906 C 126.507812 93.535156 125.390625 93.910156 124.433594 94.550781 C 119.636719 97.585938 115.535156 100.835938 112.019531 104.351562 C 98.703125 117.71875 94.496094 134.394531 96.09375 151.757812 C 97.746094 169.707031 105.523438 188.457031 115.960938 205.023438 C 122.992188 216.210938 131.25 226.386719 139.613281 234.800781 L 140.253906 235.441406 C 148.667969 243.855469 158.84375 252.058594 170.027344 259.089844 C 186.648438 269.53125 205.34375 277.363281 223.296875 279.011719 C 240.660156 280.609375 257.386719 276.402344 270.757812 263.03125 C 274.273438 259.515625 277.519531 255.414062 280.503906 250.675781 C 281.144531 249.664062 281.515625 248.597656 281.675781 247.480469 C 281.835938 246.359375 281.730469 245.1875 281.355469 244.015625 C 280.984375 242.898438 280.398438 241.886719 279.652344 241.085938 C 278.90625 240.289062 277.949219 239.59375 276.828125 239.167969 L 275.496094 238.636719 C 264.417969 234.109375 253.390625 229.632812 240.765625 224.308594 L 237.464844 222.976562 C 235.972656 222.390625 234.375 222.230469 232.882812 222.496094 C 231.390625 222.761719 230.007812 223.507812 228.835938 224.679688 L 210.457031 243.003906 L 207.476562 242.207031 C 193.09375 238.371094 176.3125 226.8125 162.304688 212.800781 Z M 162.304688 212.800781 " fill-opacity="1" fill-rule="nonzero"/></svg>